<svg height="511pt" viewBox="0 0 511.99945 511" width="511pt" xmlns="http://www.w3.org/2000/svg"><path d="m505.316406 255.996094c0 137.410156-111.394531 248.804687-248.800781 248.804687-137.410156 0-248.804687-111.394531-248.804687-248.804687 0-137.40625 111.394531-248.800782 248.804687-248.800782 137.40625 0 248.800781 111.394532 248.800781 248.800782zm0 0" fill="#f25c5c"/><path d="m309.714844 259.160156c-2.261719 5.371094-3.546875 11.507813-3.546875 18.03125 0 21.054688 13.363281 38.121094 29.847656 38.121094s29.84375-17.066406 29.84375-38.121094c0-11.738281-4.15625-22.234375-10.691406-29.226562zm0 0" fill="#e4eaf8"/><path d="m157.859375 247.960938c-6.535156 6.996093-10.691406 17.492187-10.691406 29.230468 0 21.054688 13.363281 38.121094 29.847656 38.121094s29.84375-17.066406 29.84375-38.121094c0-6.523437-1.28125-12.660156-3.546875-18.03125zm0 0" fill="#e4eaf8"/><path d="m37.75 255.996094c0-132.363282 103.367188-240.566406 233.78125-248.335938-4.96875-.296875-9.972656-.464844-15.019531-.464844-137.40625 0-248.800781 111.390626-248.800781 248.800782s111.394531 248.800781 248.800781 248.800781c5.046875 0 10.050781-.167969 15.019531-.464844-130.414062-7.765625-233.78125-115.96875-233.78125-248.335937zm0 0" fill="#e54a4a"/><path d="m336.207031 277.191406c0-6.523437 1.285157-12.660156 3.546875-18.03125l20.066406-4.945312c-1.363281-2.296875-2.921874-4.402344-4.652343-6.253906l-45.453125 11.199218c-2.261719 5.367188-3.546875 11.507813-3.546875 18.03125 0 21.054688 13.363281 38.121094 29.847656 38.121094 5.476563 0 10.605469-1.894531 15.019531-5.183594-8.867187-6.609375-14.828125-18.878906-14.828125-32.9375zm0 0" fill="#d8dce5"/><path d="m177.203125 277.191406c0-8.632812 2.253906-16.585937 6.042969-22.972656l-25.386719-6.257812c-6.535156 6.996093-10.691406 17.492187-10.691406 29.230468 0 21.054688 13.363281 38.121094 29.847656 38.121094 5.476563 0 10.605469-1.894531 15.015625-5.183594-8.863281-6.609375-14.828125-18.878906-14.828125-32.9375zm0 0" fill="#d8dce5"/><path d="m160.574219 414.574219c-2.5 3.308593-1.847657 8.019531 1.460937 10.519531 3.3125 2.503906 8.019532 1.847656 10.519532-1.457031 20.046874-26.5 50.574218-41.699219 83.757812-41.699219s63.710938 15.199219 83.757812 41.695312c2.5 3.308594 7.210938 3.960938 10.519532 1.457032 3.304687-2.503906 3.960937-7.210938 1.457031-10.519532-22.914063-30.28125-57.804687-47.648437-95.734375-47.648437s-72.824219 17.367187-95.738281 47.652344zm0 0"/><path d="m398.347656 237.464844c-.992187-4.027344-5.058594-6.484375-9.085937-5.492188-10.460938 2.574219-86.183594 21.230469-97.195313 23.945313-4.027344.992187-6.488281 5.0625-5.496094 9.085937.992188 4.03125 5.058594 6.488282 9.085938 5.496094l3.34375-.824219c-.351562 2.542969-.542969 5.121094-.542969 7.707031 0 25.160157 16.757813 45.632813 37.355469 45.632813s37.355469-20.472656 37.355469-45.632813c0-8.796874-2.070313-17.289062-5.84375-24.539062l25.53125-6.289062c4.023437-.992188 6.484375-5.0625 5.492187-9.089844zm-62.535156 70.53125c-12.316406 0-22.335938-13.734375-22.335938-30.613282 0-4.019531.589844-8.003906 1.71875-11.695312l36.929688-9.097656c3.863281 5.644531 6.023438 13.003906 6.023438 20.792968 0 16.878907-10.019532 30.613282-22.335938 30.613282zm0 0"/><path d="m176.8125 323.015625c20.597656 0 37.355469-20.472656 37.355469-45.632813 0-2.585937-.191407-5.164062-.542969-7.707031l3.34375.824219c4.027344.992188 8.09375-1.46875 9.085938-5.496094.992187-4.023437-1.46875-8.09375-5.496094-9.085937-11.117188-2.738281-85.914063-21.167969-97.195313-23.945313-4.027343-.992187-8.09375 1.464844-9.085937 5.492188-.992188 4.027344 1.464844 8.097656 5.492187 9.089844l25.53125 6.289062c-3.769531 7.253906-5.84375 15.742188-5.84375 24.539062 0 25.160157 16.757813 45.632813 37.355469 45.632813zm20.613281-57.328125c1.132813 3.691406 1.722657 7.675781 1.722657 11.695312 0 16.878907-10.019532 30.613282-22.335938 30.613282s-22.335938-13.734375-22.335938-30.613282c0-7.792968 2.160157-15.148437 6.023438-20.792968 6.15625 1.515625 18.089844 4.457031 36.925781 9.097656zm0 0"/><path d="m497 239.1875c.273438 3.960938 3.570312 6.988281 7.480469 6.988281.175781 0 .355469-.003906.53125-.019531 4.136719-.289062 7.257812-3.875 6.96875-8.011719-8.855469-127.261719-110.601563-228.789062-237.625-237.625-4.136719-.285156-7.726563 2.832031-8.011719 6.96875-.289062 4.136719 2.832031 7.722657 6.96875 8.011719 119.226562 8.296875 215.390625 104.460938 223.6875 223.6875zm0 0"/><path d="m238.269531.519531c-133.550781 9.292969-238.269531 120.523438-238.269531 255.667969 0 141.664062 114.636719 256.3125 256.3125 256.3125 135.003906 0 246.367188-104.59375 255.667969-238.269531.289062-4.136719-2.832031-7.722657-6.96875-8.011719-4.132813-.292969-7.726563 2.832031-8.011719 6.96875-8.753906 125.773438-114.476562 224.292969-240.6875 224.292969-133.050781 0-241.292969-108.242188-241.292969-241.292969 0-126.210938 98.519531-231.933594 224.289063-240.6875 4.140625-.289062 7.261718-3.875 6.972656-8.011719s-3.886719-7.25-8.011719-6.96875zm0 0"/></svg>