<?xml version="1.0"?>
<svg xmlns="http://www.w3.org/2000/svg" height="512px" viewBox="-136 0 512 512.00025" width="512px" class=""><g><path d="m227.132812 50.316406h-171.691406v-40.035156c0-5.679688 4.605469-10.28125 10.28125-10.28125h151.128906c5.675782 0 10.28125 4.601562 10.28125 10.28125zm0 0" fill="#7296b1" data-original="#7296B1" class="" style="fill:#FFC491" data-old_color="#7296B1"/><path d="m240.640625 55.527344v355.472656c0 18.554688-7.367187 36.363281-20.5 49.480469l-15.011719 15.019531-28.464844 28.472656c-10.714843 10.703125-28.082031 10.703125-38.796874 0v-.007812c-5.355469-5.347656-8.023438-12.375-8.023438-19.390625 0-7.023438 2.667969-14.050781 8.023438-19.398438 23.40625-23.40625 36.554687-55.15625 36.554687-88.242187v-239.632813c0-8.414062-6.820313-15.246093-15.238281-15.246093h-33.140625c-.320313 0-.640625.011718-.949219.03125-7.972656.484374-14.289062 7.117187-14.289062 15.214843v273.699219c0 18.550781-7.375 36.363281-20.5 49.476562l-15.007813 15.019532-28.476563 28.476562c-10.714843 10.703125-28.070312 10.703125-38.785156 0v-.011718c-5.355468-5.347657-8.035156-12.371094-8.035156-19.386719 0-7.027344 2.679688-14.050781 8.035156-19.398438 23.394532-23.40625 36.550782-55.15625 36.550782-88.246093v-321.402344c0-5.675782 4.605468-10.28125 10.28125-10.28125h175.492187c5.6875 0 10.28125 4.605468 10.28125 10.28125zm0 0" fill="#3f6b86" data-original="#3F6B86" class="" style="fill:#FFC491" data-old_color="#3F6B86"/><path d="m240.644531 55.53125v355.464844c0 18.558594-7.371093 36.367187-20.5 49.484375l-15.011719 15.023437-28.464843 28.464844c-10.058594 10.054688-25.980469 10.664062-36.757813 1.832031 6.632813-.269531 13.179688-2.929687 18.25-8l28.46875-28.46875 15.007813-15.019531c13.128906-13.121094 20.503906-30.925781 20.503906-49.484375v-355.464844c0-1.460937-.308594-2.859375-.867187-4.113281h9.089843c5.675781 0 10.28125 4.605469 10.28125 10.28125zm0 0" fill="#2d5b72" data-original="#2D5B72" class="" style="fill:#FFD7B3" data-old_color="#2D5B72"/><path d="m110.804688 388.574219v22.421875c0 18.558594-7.371094 36.367187-20.5 49.484375l-15.011719 15.023437c-14.917969-15.527344-18.976563-39.449218-8.378907-59.539062 8.933594-16.953125 26.011719-26.84375 43.890626-27.390625zm0 0" fill="#7296b1" data-original="#7296B1" class="" style="fill:#FFC491" data-old_color="#7296B1"/><path d="m240.644531 388.574219v22.421875c0 18.558594-7.371093 36.367187-20.5 49.484375l-15.011719 15.023437c-4.183593-4.351562-7.515624-9.367187-9.898437-14.777344-6.140625-13.867187-6.109375-30.308593 1.519531-44.761718 5.75-10.898438 14.855469-18.886719 25.386719-23.328125 5.839844-2.480469 12.121094-3.867188 18.503906-4.0625zm0 0" fill="#7296b1" data-original="#7296B1" class="" style="fill:#FFC491" data-old_color="#7296B1"/><path d="m240.644531 388.574219v22.421875c0 18.558594-7.371093 36.367187-20.5 49.484375l-15.011719 15.023437c-4.183593-4.351562-7.515624-9.367187-9.898437-14.777344l6.402344-6.414062c13.128906-13.117188 20.503906-30.925781 20.503906-49.484375v-12.191406c5.839844-2.480469 12.121094-3.867188 18.503906-4.0625zm0 0" fill="#5b7fa0" data-original="#5B7FA0" class="" style="fill:#FFC491" data-old_color="#FDC390"/><path d="m140.546875 45.246094v76.808594h-14.503906c-.320313 0-.640625.011718-.949219.03125v-76.839844zm0 0" fill="#2d5b72" data-original="#2D5B72" class="" style="fill:#FFD7B3" data-old_color="#2D5B72"/><g fill="#3f6b86"><path d="m89.292969 32.890625h-30.414063c-4.265625 0-7.726562-3.457031-7.726562-7.726563 0-4.265624 3.460937-7.726562 7.726562-7.726562h30.414063c4.265625 0 7.726562 3.460938 7.726562 7.726562 0 4.269532-3.460937 7.726563-7.726562 7.726563zm0 0" data-original="#000000" class="active-path" style="fill:#FFD7B3" data-old_color="#000000"/><path d="m159.023438 32.890625h-30.414063c-4.265625 0-7.722656-3.457031-7.722656-7.726563 0-4.265624 3.457031-7.726562 7.722656-7.726562h30.414063c4.269531 0 7.726562 3.460938 7.726562 7.726562 0 4.269532-3.457031 7.726563-7.726562 7.726563zm0 0" data-original="#000000" class="active-path" style="fill:#FFD7B3" data-old_color="#000000"/><path d="m226.023438 32.890625h-30.410157c-4.269531 0-7.726562-3.457031-7.726562-7.726563 0-4.265624 3.457031-7.726562 7.726562-7.726562h30.410157c4.269531 0 7.726562 3.460938 7.726562 7.726562 0 4.269532-3.457031 7.726563-7.726562 7.726563zm0 0" data-original="#000000" class="active-path" style="fill:#FFD7B3" data-old_color="#000000"/></g></g> </svg>
