<?xml version="1.0"?>
<svg xmlns="http://www.w3.org/2000/svg" height="512px" viewBox="0 -16 512.00075 512" width="512px" class=""><g><path d="m159.378906 308.75h149.371094v-127.636719" fill="#e6e6e6" data-original="#E6E6E6" class="active-path" style="fill:#DDDDDD" data-old_color="#DDDCDC"/><path d="m308.75 159.375c0 82.496094-66.875 149.375-149.371094 149.375-82.5 0-149.375-66.878906-149.375-149.375s66.875-149.375 149.375-149.375c82.496094 0 149.371094 66.878906 149.371094 149.375zm0 0" fill="#e6e6e6" data-original="#E6E6E6" class="active-path" style="fill:#DDDDDD" data-old_color="#DDDCDC"/><path d="m213.824219 159.375c0 30.070312-24.375 54.449219-54.445313 54.449219-30.074218 0-54.449218-24.378907-54.449218-54.449219s24.375-54.449219 54.449218-54.449219c30.070313 0 54.445313 24.378907 54.445313 54.449219zm0 0" fill="#7c84e8" data-original="#7C84E8" class=""/><path d="m236.605469 298.746094c-22.890625 12.738281-49.226563 20.007812-77.226563 20.007812h139.371094v-20.007812zm0 0" data-original="#000000" class="" style="fill:#00FFCB" data-old_color="#00B7FF"/><path d="m392.808594 58.230469c-.179688-.0625-.359375-.117188-.539063-.167969l-199.089843-54.859375c-1.1875-.328125-2.390626-.421875-3.566407-.3125 31.125 6 59.050781 21.082031 80.902344 42.375l116.164063 32.007813c35.128906 11.917968 63.824218 35.546874 82.339843 65.652343l17.890625 2.625c5.464844.800781 9.246094 5.878907 8.445313 11.347657-.726563 4.972656-5 8.554687-9.882813 8.554687-.484375 0-.972656-.035156-1.464844-.109375l-3.820312-.558594c7.648438 18.453125 11.808594 38.570313 11.808594 59.429688v51.09375l10.519531.546875c5.519531.285156 9.757813 4.988281 9.472656 10.507812-.277343 5.339844-4.695312 9.484375-9.980469 9.484375-.175781 0-.351562-.003906-.527343-.015625l-9.484375-.492187v94.226562l10.097656.09375c5.523438.054688 9.960938 4.574219 9.90625 10.101563-.050781 5.488281-4.519531 9.90625-10 9.90625-.03125 0-.066406 0-.097656 0l-9.90625-.09375v31.839843c0 9.957032-8.101563 18.058594-18.058594 18.058594h-137.128906c-9.957032 0-18.054688-8.101562-18.054688-18.058594v-33.476562l-10.097656-.09375c-5.523438-.054688-9.960938-4.574219-9.90625-10.097656.050781-5.523438 4.578125-9.914063 10.09375-9.910156l9.910156.09375v-79.179688c0 5.523438-4.476562 10.003906-10.003906 10.003906h-10v122.664063c0 20.984375 17.074219 38.0625 38.0625 38.0625h137.125c20.988281 0 38.0625-17.074219 38.0625-38.0625v-217.199219c0-75.242188-47.898438-141.945312-119.191406-165.988281zm0 0" data-original="#000000" class="" style="fill:#00FFCB" data-old_color="#00B7FF"/><path d="m318.558594 167.191406c-.15625 3.25-.417969 6.46875-.769532 9.660156.613282 1.296876.964844 2.734376.964844 4.261719v-8.683593c0-1.753907-.078125-3.5-.195312-5.238282zm0 0" data-original="#000000" class="" style="fill:#00FFCB" data-old_color="#00B7FF"/><path d="m318.753906 308.75v-22.390625l-10.523437-.546875c-5.515625-.285156-9.757813-4.988281-9.46875-10.507812.285156-5.515626 4.976562-9.785157 10.503906-9.46875l9.488281.488281v-85.214844c0-1.523437-.355468-2.964844-.964844-4.257813-2.351562 21.480469-8.992187 41.6875-19.042968 59.753907v82.144531h10.003906c5.523438.003906 10.003906-4.476562 10.003906-10zm0 0" data-original="#000000" class="" style="fill:#00FFCB" data-old_color="#00B7FF"/><path d="m318.558594 167.191406c.128906-2.589844.195312-5.195312.195312-7.816406 0-5.894531-.332031-11.710938-.960937-17.441406l-5.546875-.910156c3.574218 8.25 5.710937 17.09375 6.3125 26.167968zm0 0" data-original="#000000" class="" style="fill:#00FFCB" data-old_color="#00B7FF"/><path d="m298.746094 172.429688c0-1.722657-.078125-3.441407-.226563-5.144532-4.117187 73.183594-64.949219 131.460938-139.144531 131.460938h77.230469c26.058593-14.496094 47.644531-36.082032 62.140625-62.136719zm0 0" data-original="#000000" class="" style="fill:#00FFCB" data-old_color="#00B7FF"/><path d="m224.636719 36.261719c29.507812 15.703125 52.738281 41.710937 64.859375 73.1875l9.386718 10.59375c.945313 1.066406 1.847657 2.164062 2.730469 3.273437 2.203125-2.242187 5.421875-3.417968 8.757813-2.875l3.714844.609375c-7.253907-29.273437-22.621094-55.378906-43.566407-75.785156l-50.148437-13.820313zm0 0" data-original="#000000" class="" style="fill:#00FFCB" data-old_color="#00B7FF"/><path d="m149.375 308.75c0-5.523438 4.476562-10.003906 10.003906-10.003906-76.851562 0-139.375-62.519532-139.375-139.371094 0-76.847656 62.523438-139.371094 139.375-139.371094 9.003906 0 17.808594.871094 26.34375 2.511719l-2.6875-3.035156c-2.9375-3.316407-3.347656-8.167969-1.003906-11.925781 1.691406-2.714844 4.53125-4.386719 7.585938-4.664063-9.796876-1.890625-19.902344-2.890625-30.238282-2.890625-87.882812 0-159.378906 71.496094-159.378906 159.375s71.496094 159.378906 159.378906 159.378906c-5.527344 0-10.003906-4.480468-10.003906-10.003906zm0 0" data-original="#000000" class="" style="fill:#00FFCB" data-old_color="#00B7FF"/><path d="m159.378906 298.746094c-5.527344 0-10.003906 4.480468-10.003906 10.003906s4.476562 10.003906 10.003906 10.003906c28.003906 0 54.335938-7.269531 77.226563-20.007812zm0 0" data-original="#000000" class="" style="fill:#00FFCB" data-old_color="#00B7FF"/><path d="m312.246094 141.023438-5.117188-.839844c-5.449218-.894532-9.144531-6.039063-8.25-11.488282.347656-2.117187 1.339844-3.957031 2.734375-5.378906-.882812-1.109375-1.785156-2.207031-2.730469-3.273437l-9.386718-10.59375c5.96875 15.507812 9.25 32.339843 9.25 49.925781 0 2.65625-.082032 5.289062-.226563 7.90625.148438 1.707031.226563 3.421875.226563 5.148438v8.683593c0-5.527343 4.480468-10.003906 10.003906-10.003906 4 0 7.4375 2.351563 9.039062 5.742187.351563-3.195312.613282-6.414062.769532-9.660156-.601563-9.074218-2.738282-17.917968-6.3125-26.167968zm0 0" data-original="#000000" class="" style="fill:#00FFCB" data-old_color="#00B7FF"/><path d="m182.03125 7.554688c-2.34375 3.757812-1.933594 8.609374 1 11.921874l2.691406 3.035157c13.796875 2.652343 26.875 7.339843 38.914063 13.746093l-4.269531-4.8125 50.148437 13.820313c-21.855469-21.292969-49.777344-36.375-80.902344-42.375-3.054687.277344-5.890625 1.945313-7.582031 4.664063zm0 0" data-original="#000000" class="" style="fill:#00FFCB" data-old_color="#00B7FF"/><path d="m308.75 171.109375c-5.523438 0-10.003906 4.476563-10.003906 10.003906v55.492188c10.050781-18.066407 16.691406-38.273438 19.042968-59.753907-1.601562-3.390624-5.039062-5.742187-9.039062-5.742187zm0 0" data-original="#000000" class="" style="fill:#00FFCB" data-old_color="#00B7FF"/><path d="m159.378906 94.925781c-35.539062 0-64.453125 28.910157-64.453125 64.449219s28.914063 64.449219 64.453125 64.449219c35.535156 0 64.449219-28.910157 64.449219-64.449219s-28.914063-64.449219-64.449219-64.449219zm0 108.894531c-24.507812 0-44.445312-19.9375-44.445312-44.445312s19.9375-44.445312 44.445312-44.445312c24.503906 0 44.441406 19.9375 44.441406 44.445312s-19.9375 44.445312-44.441406 44.445312zm0 0" data-original="#000000" class="" style="fill:#00FFCB" data-old_color="#00B7FF"/><path d="m409.546875 144.324219c-.800781 5.464843 2.980469 10.546875 8.449219 11.347656l62.191406 9.113281c-1.527344-3.683594-3.191406-7.300781-4.992188-10.839844l-55.75-8.171874 55.75 8.171874c-1.910156-3.757812-3.972656-7.433593-6.175781-11.015624l-48.125-7.054688c-5.457031-.792969-10.542969 2.980469-11.347656 8.449219zm0 0" data-original="#000000" class="" style="fill:#00FFCB" data-old_color="#00B7FF"/><path d="m485.457031 155.449219-10.261719-1.503907c1.800782 3.542969 3.464844 7.15625 4.992188 10.839844l3.820312.558594c.492188.074219.980469.109375 1.460938.109375 4.882812 0 9.15625-3.582031 9.886719-8.554687.800781-5.464844-2.980469-10.546876-8.449219-11.347657l-17.886719-2.621093c2.203125 3.582031 4.265625 7.253906 6.175781 11.015624zm0 0" data-original="#000000" class="" style="fill:#00FFCB" data-old_color="#00B7FF"/><path d="m341.257812 135.648438-24.9375-4.09375c.601563 3.425781 1.09375 6.886718 1.472657 10.378906l21.84375 3.585937c.546875.089844 1.09375.132813 1.632812.132813 4.808594 0 9.050781-3.480469 9.859375-8.382813.894532-5.453125-2.800781-10.597656-8.253906-11.492187l-28.792969-4.726563c.859375 3.460938 1.609375 6.960938 2.238281 10.503907zm0 0" data-original="#000000" class="" style="fill:#00FFCB" data-old_color="#00B7FF"/><path d="m317.792969 141.933594c-.378907-3.492188-.871094-6.953125-1.472657-10.378906l-7.570312-1.242188 7.570312 1.242188c-.628906-3.542969-1.378906-7.042969-2.238281-10.503907l-3.710937-.609375c-3.335938-.542968-6.554688.632813-8.757813 2.875 4.328125 5.449219 7.898438 11.402344 10.628907 17.707032zm0 0" data-original="#000000" class="" style="fill:#00FFCB" data-old_color="#00B7FF"/><path d="m298.878906 128.695312c-.894531 5.449219 2.800782 10.59375 8.25 11.492188l5.117188.835938c-2.734375-6.304688-6.304688-12.257813-10.632813-17.707032-1.394531 1.421875-2.386719 3.261719-2.734375 5.378906zm0 0" data-original="#000000" class="" style="fill:#00FFCB" data-old_color="#00B7FF"/><path d="m323.742188 286.601562c5.285156 0 9.703124-4.140624 9.980468-9.484374l-14.96875-.773438v10.015625l4.460938.230469c.179687.007812.355468.011718.527344.011718zm0 0" data-original="#000000" class="" style="fill:#00FFCB" data-old_color="#00B7FF"/><path d="m333.722656 277.117188c.289063-5.515626-3.953125-10.21875-9.46875-10.503907l-5.5-.285156v10.015625zm0 0" data-original="#000000" class="" style="fill:#00FFCB" data-old_color="#00B7FF"/><path d="m308.75 275.824219 10.003906.519531v-10.015625l-9.484375-.492187c-5.53125-.3125-10.222656 3.953124-10.507812 9.472656-.285157 5.515625 3.953125 10.222656 9.472656 10.507812l10.519531.542969v-10.015625zm0 0" data-original="#000000" class="" style="fill:#00FFCB" data-old_color="#00B7FF"/><path d="m355.871094 288.285156 32.65625 1.691406c.175781.007813.351562.011719.527344.011719 5.285156 0 9.703124-4.140625 9.980468-9.484375l-52.632812-2.726562c-.289063 5.515625 3.953125 10.21875 9.46875 10.507812zm0 0" data-original="#000000" class="" style="fill:#00FFCB" data-old_color="#00B7FF"/><path d="m399.035156 280.503906c.285156-5.515625-3.953125-10.21875-9.472656-10.503906l-32.65625-1.695312c-5.53125-.304688-10.21875 3.957031-10.503906 9.472656zm0 0" data-original="#000000" class="" style="fill:#00FFCB" data-old_color="#00B7FF"/><path d="m421.183594 291.671875 32.65625 1.691406c.175781.011719.351562.015625.527344.015625 5.285156 0 9.703124-4.144531 9.980468-9.488281l-52.636718-2.726563c-.285157 5.515626 3.957031 10.21875 9.472656 10.507813zm0 0" data-original="#000000" class="" style="fill:#00FFCB" data-old_color="#00B7FF"/><path d="m464.347656 283.890625c.285156-5.515625-3.957031-10.21875-9.472656-10.507813l-32.65625-1.691406c-5.527344-.3125-10.21875 3.953125-10.507812 9.472656zm0 0" data-original="#000000" class="" style="fill:#00FFCB" data-old_color="#00B7FF"/><path d="m477.023438 284.546875v.003906l14.972656.773438v-10.015625l-4.464844-.230469c-5.519531-.308594-10.222656 3.953125-10.507812 9.46875zm0 0" data-original="#000000" class="" style="fill:#00FFCB" data-old_color="#00B7FF"/><path d="m477.023438 284.550781c-.285157 5.515625 3.953124 10.21875 9.472656 10.507813l5.5.28125v-10.015625zm0 0" data-original="#000000" class="" style="fill:#00FFCB" data-old_color="#00B7FF"/><path d="m501.996094 285.84375-10-.519531v10.015625l9.484375.492187c.175781.011719.351562.015625.523437.015625 5.289063 0 9.703125-4.144531 9.980469-9.484375.289063-5.519531-3.953125-10.222656-9.46875-10.507812l-10.519531-.546875v10.015625zm0 0" data-original="#000000" class="" style="fill:#00FFCB" data-old_color="#00B7FF"/><path d="m333.757812 398.078125c.050782-5.523437-4.382812-10.046875-9.910156-10.097656l-5.09375-.050781v10.003906zm0 0" data-original="#000000" class="" style="fill:#00FFCB" data-old_color="#00B7FF"/><path d="m323.753906 407.984375c5.480469 0 9.949219-4.414063 10.003906-9.90625l-15.003906-.144531v10.003906l4.90625.046875zm0 0" data-original="#000000" class="" style="fill:#00FFCB" data-old_color="#00B7FF"/><path d="m308.75 397.839844 10.003906.09375v-10.003906l-9.910156-.09375c-5.515625-.003907-10.042969 4.386718-10.097656 9.910156-.050782 5.523437 4.382812 10.042968 9.910156 10.097656l10.097656.09375v-10.003906zm0 0" data-original="#000000" class="" style="fill:#00FFCB" data-old_color="#00B7FF"/><path d="m389.144531 388.597656-32.648437-.308594c-.03125 0-.0625 0-.097656 0-5.480469 0-9.949219 4.414063-10 9.90625l52.652343.496094c.050781-5.519531-4.382812-10.042968-9.90625-10.09375zm0 0" data-original="#000000" class="" style="fill:#00FFCB" data-old_color="#00B7FF"/><path d="m356.308594 408.292969 32.644531.308593h.097656c5.480469 0 9.949219-4.414062 10-9.90625l-52.652343-.496093c-.050782 5.523437 4.386718 10.042969 9.910156 10.09375zm0 0" data-original="#000000" class="" style="fill:#00FFCB" data-old_color="#00B7FF"/><path d="m421.601562 408.910156 32.648438.308594h.097656c5.480469 0 9.949219-4.414062 10-9.90625l-52.652344-.496094c-.050781 5.519532 4.382813 10.042969 9.90625 10.09375zm0 0" data-original="#000000" class="" style="fill:#00FFCB" data-old_color="#00B7FF"/><path d="m454.441406 389.210938-32.648437-.308594c-.03125 0-.0625 0-.097657 0-5.480468 0-9.949218 4.417968-10 9.910156l52.652344.496094c.050782-5.519532-4.382812-10.042969-9.90625-10.097656zm0 0" data-original="#000000" class="" style="fill:#00FFCB" data-old_color="#00B7FF"/><path d="m476.992188 399.429688 15.003906.140624v-10.003906l-4.910156-.046875c-5.527344-.015625-10.042969 4.386719-10.09375 9.910157zm0 0" data-original="#000000" class="" style="fill:#00FFCB" data-old_color="#00B7FF"/><path d="m476.992188 399.429688c-.054688 5.523437 4.382812 10.042968 9.90625 10.097656l5.09375.046875v-10.003907zm0 0" data-original="#000000" class="" style="fill:#00FFCB" data-old_color="#00B7FF"/><path d="m501.996094 399.664062-10-.09375v10.003907l9.90625.09375h.097656c5.480469 0 9.949219-4.414063 10-9.90625.050781-5.523438-4.382812-10.046875-9.90625-10.097657l-10.097656-.097656v10.003906zm0 0" data-original="#000000" class="" style="fill:#00FFCB" data-old_color="#00B7FF"/><path d="m371.28125 145.1875c1.574219 3.890625 5.320312 6.25 9.273438 6.25 1.25 0 2.519531-.238281 3.75-.734375 5.121093-2.074219 7.589843-7.90625 5.519531-13.023437l-.121094-.300782c-2.074219-5.121094-7.90625-7.585937-13.027344-5.515625-5.121093 2.074219-7.589843 7.90625-5.515625 13.023438zm0 0" data-original="#000000" class="" style="fill:#00FFCB" data-old_color="#00B7FF"/></g> </svg>
